<?xml version="1.0" encoding="utf-8"?>
<!-- Generator: Adobe Illustrator 24.1.2, SVG Export Plug-In . SVG Version: 6.00 Build 0)  -->
<svg version="1.1" id="Warstwa_3" xmlns="http://www.w3.org/2000/svg" xmlns:xlink="http://www.w3.org/1999/xlink" x="0px" y="0px"
	 viewBox="0 0 430 430" style="enable-background:new 0 0 430 430;" xml:space="preserve">
<style type="text/css">
	.st0{fill:#ffffff;}
	.st1{fill:#ffffff;}
	.st2{fill:none;stroke:#ffffff;stroke-width:12.25;stroke-miterlimit:14;}
	.st3{fill-opacity:0;}
	.st4{fill:#131432;}
	.st5{fill:none;}
</style>
<g>
	<path class="st1" d="M305.32,338.81H165.59c-1.65,0-3.22-0.66-4.37-1.84s-1.78-2.77-1.75-4.41l0.23-11.36
		c0.04-30.66,24.78-55.6,55.19-55.6H271c30.43,0,55.2,24.97,55.2,55.67c0,0.04,0,0.08,0,0.13l-0.21,10.17
		c-0.07,3.38-2.91,6.07-6.25,6c-3.38-0.07-6.07-2.87-6-6.25l0.21-10.1c-0.03-23.91-19.29-43.35-42.95-43.35h-56.11
		c-23.68,0-42.94,19.48-42.94,43.42c0,0.04,0,0.08,0,0.12l-0.1,5.17h133.48c3.38,0,6.13,2.74,6.13,6.13S308.7,338.81,305.32,338.81z
		"/>
	<path class="st1" d="M245.78,242.77c-6.56,0-13.14-1.59-19.23-4.74c-8.82-4.56-15.91-12.16-19.97-21.4
		c-9.58-21.77-0.27-47.01,20.74-56.25c21.02-9.25,45.91,0.94,55.49,22.71c9.58,21.77,0.27,47.01-20.74,56.25
		C256.87,241.63,251.33,242.77,245.78,242.77z M243.57,169.21c-3.81,0-7.65,0.76-11.32,2.38c-14.83,6.53-21.32,24.52-14.46,40.11
		c2.94,6.68,8.05,12.17,14.39,15.46c0,0,0,0,0,0c7.93,4.11,17.03,4.46,24.95,0.98c14.83-6.53,21.32-24.52,14.46-40.11
		C266.43,176.29,255.16,169.21,243.57,169.21z"/>
	<path class="st0" d="M305.32,338.81H108.37c-41.17,0-74.66-33.49-74.66-74.66c0-26.29,13.71-50.38,36.07-63.88
		c-0.17-1.56-0.26-3.11-0.26-4.65c0-23.57,19.18-42.75,42.75-42.75c2.76,0,5.51,0.27,8.22,0.8C142.53,115,183.3,91.19,228.03,91.19
		c48.85,0,92.89,28.55,112.91,72.95c15.8,6.72,29.3,17.71,39.16,31.9c10.6,15.25,16.2,33.17,16.2,51.81
		c0,43.22-30.72,80.74-73.04,89.2l-1.2-6.01l1.2,6.01C317.39,338.22,311.35,338.81,305.32,338.81z M112.26,165.12
		c-16.82,0-30.5,13.68-30.5,30.5c0,2.15,0.25,4.36,0.73,6.57c0.59,2.69-0.69,5.45-3.13,6.73c-20.6,10.85-33.4,32.01-33.4,55.23
		c0,34.41,28,62.41,62.41,62.41h196.95c5.23,0,10.45-0.51,15.53-1.53c36.62-7.32,63.19-39.79,63.19-77.19
		c0-32.59-19.61-61.35-49.96-73.27c-1.53-0.6-2.75-1.79-3.39-3.3c-17.58-41.21-57.88-67.84-102.66-67.84
		c-41.77,0-79.71,23.06-99.02,60.19c-1.38,2.66-4.48,3.92-7.33,3C118.62,165.63,115.45,165.12,112.26,165.12z"/>
	<path class="st0" d="M336.04,265.96c-0.91,0-1.83-0.2-2.7-0.63c-3.03-1.49-4.28-5.17-2.79-8.2c9.88-20.06,9.99-41.47,9.99-41.68
		c0-15.48-3.1-30.45-9.22-44.51c-1.35-3.1,0.07-6.71,3.17-8.06c3.1-1.35,6.71,0.07,8.06,3.17c6.8,15.61,10.24,32.23,10.24,49.39
		c0,0.97-0.06,24.38-11.25,47.11C340.47,264.71,338.3,265.96,336.04,265.96z M137.77,175.08c-1.47,0-2.94-0.53-4.12-1.59
		c-5.62-5.11-12.9-7.93-20.5-7.93c-3.38,0-6.13-2.74-6.13-6.13s2.74-6.13,6.13-6.13c10.65,0,20.85,3.95,28.74,11.11
		c2.5,2.28,2.69,6.15,0.41,8.65C141.1,174.41,139.44,175.08,137.77,175.08z"/>
</g>
</svg>
