<?xml version="1.0" encoding="utf-8"?>
<!-- Generator: Adobe Illustrator 24.1.2, SVG Export Plug-In . SVG Version: 6.00 Build 0)  -->
<svg version="1.1" id="Warstwa_3" xmlns="http://www.w3.org/2000/svg" xmlns:xlink="http://www.w3.org/1999/xlink" x="0px" y="0px"
	 viewBox="0 0 430 430" style="enable-background:new 0 0 430 430;" xml:space="preserve">
<style type="text/css">
	.st0{fill:#ffffff;}
	.st1{fill:#ffffff;}
	.st2{fill:#ffffff;}
	.st3{fill:none;}
</style>
<g>
	<path class="st0" d="M317.45,284c-10.31,0-20.64-1.57-30.6-4.76c-3.16-1.01-4.9-4.38-3.89-7.54c1.01-3.16,4.38-4.9,7.54-3.89
		c23.66,7.56,48.62,5.06,70.29-7.05c8.03-4.49,15.17-10.05,21.33-16.6c-37.68,1.73-73.55-17.78-92.4-51.51
		c-16.19-28.98-17.05-63.24-3-92.52c-4.29,1.59-8.46,3.52-12.48,5.77c-29.86,16.69-47.21,48.28-45.3,82.45
		c0.19,3.31-2.35,6.14-5.66,6.33c-3.32,0.18-6.14-2.35-6.33-5.66c-1.04-18.57,3.08-37.06,11.9-53.47
		c9.07-16.86,22.73-30.74,39.52-40.12c9.3-5.21,19.28-8.88,29.68-10.93c2.39-0.47,4.82,0.55,6.16,2.57
		c1.34,2.03,1.33,4.66-0.03,6.68c-18.92,27.94-20.45,63.6-3.99,93.04c18.8,33.63,56.8,51.22,94.57,43.78
		c2.38-0.47,4.82,0.55,6.16,2.57c1.34,2.03,1.33,4.66-0.03,6.68c-8.85,13.09-20.38,23.66-34.25,31.42
		C351.52,279.68,334.52,284,317.45,284z"/>
	<path class="st1" d="M254.24,217.67c-15.8-32.35-48.89-53.12-85-53.12c-32.47,0-62.89,16.97-80.39,44.56
		c-8.86-0.8-17.79,2.19-24.58,8.41c-7.14,6.53-11.03,15.69-10.84,25.11c-15.73,10.32-25.35,27.95-25.35,46.91
		c0,30.92,25.16,56.08,56.08,56.08h144.17c36.72,0,66.59-29.87,66.59-66.59C294.92,252.35,278.67,228,254.24,217.67z M228.33,333.61
		H84.16c-24.3,0-44.08-19.77-44.08-44.08c0-15.94,8.64-30.68,22.56-38.47c2.17-1.22,3.36-3.65,3-6.11
		c-1.01-6.86,1.51-13.81,6.73-18.59c5.06-4.64,11.67-6.41,18.13-4.88c6.13,1.46,11.5,5.38,14.72,10.74
		c2.82,4.69,3.64,10.06,2.33,15.12c-0.83,3.21,1.09,6.48,4.3,7.32c3.21,0.84,6.48-1.09,7.32-4.3c2.14-8.21,0.84-16.85-3.66-24.32
		c-3.47-5.78-8.59-10.43-14.58-13.43c15.55-22.41,41.12-36.07,68.31-36.07c32.24,0,61.74,18.96,75.14,48.31
		c6.9,15.1,9.07,32.49,6.12,48.95c-0.59,3.26,1.58,6.38,4.85,6.97c0.36,0.06,0.72,0.1,1.07,0.1c2.85,0,5.38-2.04,5.9-4.94
		c2.43-13.53,1.81-27.6-1.64-40.86c13.7,10.14,22.25,26.44,22.25,43.96C282.92,309.12,258.43,333.61,228.33,333.61z"/>
</g>
</svg>
