<?xml version="1.0" encoding="utf-8"?>
<!-- Generator: Adobe Illustrator 24.1.2, SVG Export Plug-In . SVG Version: 6.00 Build 0)  -->
<svg version="1.1" id="Warstwa_3" xmlns="http://www.w3.org/2000/svg" xmlns:xlink="http://www.w3.org/1999/xlink" x="0px" y="0px"
	 viewBox="0 0 430 430" style="enable-background:new 0 0 430 430;" xml:space="preserve">
<style type="text/css">
	.st0{fill:#ffffff;}
	.st1{fill:#ffffff;}
	.st2{fill:#ffffff;}
	.st3{fill:none;}
</style>
<g>
	<g>
		<path class="st0" d="M382.44,175.07c0.01-0.17,0.02-0.34,0.03-0.51c0,0,0.03-1.14,0.03-1.7c0-28.81-23.44-52.25-52.25-52.25
			c-0.36,0-0.74,0.01-1.12,0.02c-17.27-15.24-39.35-23.62-62.48-23.62c-36.11,0-69.2,20.77-85,53.13c-2.55,1.08-5.04,2.32-7.42,3.7
			c-2.86,1.67-3.83,5.34-2.17,8.2c1.11,1.91,3.12,2.98,5.19,2.98c0.77,0,1.56-0.15,2.3-0.46c0.59,0.58,1.3,1.06,2.13,1.36
			c0.69,0.26,1.4,0.38,2.1,0.38c2.43,0,4.72-1.49,5.62-3.9c0.61-1.65,1.32-3.36,2.11-5.07c13.4-29.35,42.9-48.31,75.14-48.31
			c16.81,0,32.99,5.07,46.64,14.44c-20.58,7.1-35.3,26.73-35.3,49.41c0,7.17,1.43,14.13,4.25,20.67c0.98,2.27,3.19,3.63,5.51,3.63
			c0.79,0,1.6-0.16,2.37-0.49c3.04-1.31,4.45-4.84,3.13-7.89c-2.17-5.03-3.27-10.38-3.27-15.91c0-21.03,16.42-38.67,37.34-40.15
			c1.01-0.07,1.99-0.1,2.91-0.1c22.19,0,40.25,18.06,40.25,40.25c0,0.44-0.03,1.33-0.03,1.34c-0.04,1.13-0.11,2.19-0.23,3.22
			c-0.01,0.04,0,0.08-0.01,0.12c-0.03,0.24-0.05,0.47-0.05,0.71c0,0.1,0.01,0.2,0.01,0.3c0.01,0.17,0.02,0.34,0.04,0.51
			c0.01,0.1,0.02,0.2,0.04,0.3c0.04,0.22,0.1,0.44,0.16,0.66c0.03,0.11,0.07,0.21,0.11,0.32c0.06,0.16,0.13,0.32,0.2,0.48
			c0.06,0.13,0.13,0.26,0.2,0.39c0.08,0.15,0.17,0.29,0.26,0.43c0.06,0.1,0.13,0.19,0.2,0.28c0.14,0.18,0.28,0.35,0.44,0.52
			c0.08,0.08,0.16,0.15,0.24,0.23c0.12,0.11,0.24,0.21,0.36,0.31c0.09,0.07,0.18,0.14,0.27,0.21c0.17,0.12,0.35,0.24,0.54,0.34
			c13.92,7.79,22.56,22.54,22.56,38.48c0,24.3-19.77,44.07-44.08,44.07h-68.97c-3.31,0-6,2.69-6,6s2.69,6,6,6h68.97
			c30.92,0,56.08-25.15,56.08-56.07C407.81,203.02,398.18,185.38,382.44,175.07z"/>
		<path class="st1" d="M248.35,205.05c-15.8-32.35-48.89-53.12-85-53.12c-32.47,0-62.89,16.97-80.39,44.56
			c-8.86-0.8-17.79,2.19-24.58,8.41c-7.14,6.53-11.03,15.69-10.84,25.11c-15.73,10.32-25.35,27.95-25.35,46.91
			c0,30.92,25.16,56.08,56.08,56.08h144.17c36.72,0,66.59-29.87,66.59-66.59C289.03,239.73,272.78,215.38,248.35,205.05z
			 M222.44,320.99H78.27c-24.3,0-44.08-19.77-44.08-44.08c0-15.94,8.64-30.68,22.56-38.48c2.17-1.22,3.36-3.64,3-6.11
			c-1.01-6.86,1.51-13.81,6.73-18.59c5.06-4.64,11.67-6.41,18.13-4.88c6.13,1.46,11.5,5.38,14.72,10.74
			c2.82,4.69,3.64,10.06,2.33,15.12c-0.83,3.21,1.09,6.48,4.3,7.32c3.21,0.84,6.48-1.09,7.32-4.3c2.14-8.21,0.84-16.85-3.66-24.32
			c-3.47-5.78-8.59-10.43-14.58-13.43c15.55-22.41,41.12-36.07,68.31-36.07c32.24,0,61.74,18.96,75.14,48.31
			c6.9,15.1,9.07,32.49,6.12,48.95c-0.59,3.26,1.58,6.38,4.85,6.97c0.36,0.06,0.72,0.1,1.07,0.1c2.85,0,5.38-2.04,5.9-4.94
			c2.43-13.53,1.81-27.6-1.64-40.86c13.7,10.14,22.25,26.44,22.25,43.96C277.03,296.5,252.54,320.99,222.44,320.99z"/>
	</g>
</g>
</svg>
