<?xml version="1.0" encoding="utf-8"?>
<!-- Generator: Adobe Illustrator 24.1.2, SVG Export Plug-In . SVG Version: 6.00 Build 0)  -->
<svg version="1.1" id="Warstwa_3" xmlns="http://www.w3.org/2000/svg" xmlns:xlink="http://www.w3.org/1999/xlink" x="0px" y="0px"
	 viewBox="0 0 430 430" style="enable-background:new 0 0 430 430;" xml:space="preserve">
<style type="text/css">
	.st0{fill:#ffffff;}
	.st1{fill:#ffffff;}
	.st2{fill:#ffffff;}
	.st3{fill:none;}
</style>
<g>
	<path class="st0" d="M126.04,293.27c-3.31,0-6-2.69-6-6v-25.48c0-3.31,2.69-6,6-6s6,2.69,6,6v25.48
		C132.04,290.58,129.36,293.27,126.04,293.27z"/>
	<path class="st0" d="M126.04,389.02c-3.31,0-6-2.69-6-6v-60.75c0-3.31,2.69-6,6-6s6,2.69,6,6v60.75
		C132.04,386.33,129.36,389.02,126.04,389.02z"/>
	<path class="st0" d="M170.52,293.27c-3.31,0-6-2.69-6-6v-25.43c0-3.31,2.69-6,6-6s6,2.69,6,6v25.43
		C176.52,290.58,173.84,293.27,170.52,293.27z"/>
	<path class="st0" d="M170.52,389.02c-3.31,0-6-2.69-6-6v-60.75c0-3.31,2.69-6,6-6s6,2.69,6,6v60.75
		C176.52,386.33,173.84,389.02,170.52,389.02z"/>
	<path class="st0" d="M215,334.36c-3.31,0-6-2.69-6-6v-66.3c0-3.31,2.69-6,6-6s6,2.69,6,6v66.3C221,331.67,218.31,334.36,215,334.36
		z"/>
	<path class="st0" d="M215,389.02c-3.31,0-6-2.69-6-6v-21.94c0-3.31,2.69-6,6-6s6,2.69,6,6v21.94
		C221,386.33,218.31,389.02,215,389.02z"/>
	<path class="st0" d="M303.96,333.94c-3.31,0-6-2.69-6-6v-66.3c0-3.31,2.69-6,6-6s6,2.69,6,6v66.3
		C309.96,331.26,307.27,333.94,303.96,333.94z"/>
	<path class="st0" d="M303.96,389.02c-3.31,0-6-2.69-6-6v-23.33c0-3.31,2.69-6,6-6s6,2.69,6,6v23.33
		C309.96,386.33,307.27,389.02,303.96,389.02z"/>
	<path class="st0" d="M259.48,293.67c-3.31,0-6-2.69-6-6v-25.84c0-3.31,2.69-6,6-6s6,2.69,6,6v25.84
		C265.48,290.99,262.79,293.67,259.48,293.67z"/>
	<path class="st0" d="M259.48,389.02c-3.31,0-6-2.69-6-6v-59.75c0-3.31,2.69-6,6-6s6,2.69,6,6v59.75
		C265.48,386.33,262.79,389.02,259.48,389.02z"/>
	<path class="st1" d="M330.41,107.4c-19.49-40.42-60.7-66.42-105.69-66.42c-40.58,0-78.6,21.38-100.23,56.07
		c-11-1.27-22.19,2.35-30.64,10.08c-8.85,8.1-13.59,19.55-13.1,31.24C61,150.99,48.88,172.91,48.88,196.51
		c0,38.01,30.92,68.93,68.93,68.93h181.17c45.29,0,82.14-36.85,82.14-82.14C381.12,150.2,360.84,120.02,330.41,107.4z
		 M298.98,253.44H117.81c-31.39,0-56.93-25.54-56.93-56.93c0-20.58,11.16-39.62,29.13-49.69c2.17-1.22,3.36-3.64,3-6.11
		c-1.34-9.12,2-18.36,8.95-24.72c6.75-6.18,15.56-8.54,24.17-6.49c8.11,1.93,15.2,7.11,19.46,14.2c3.76,6.25,4.86,13.42,3.1,20.18
		c-0.83,3.21,1.09,6.48,4.3,7.32c3.21,0.84,6.48-1.09,7.32-4.3c2.58-9.91,1.01-20.35-4.42-29.38c-4.52-7.52-11.33-13.47-19.3-17.06
		C156.3,71,189.44,52.98,224.72,52.98c41.12,0,78.73,24.18,95.83,61.61c8.8,19.26,11.57,41.43,7.8,62.42
		c-0.59,3.26,1.58,6.38,4.84,6.97c0.36,0.06,0.72,0.1,1.07,0.1c2.85,0,5.38-2.04,5.9-4.94c3.26-18.17,2.1-37.14-3.18-54.77
		c19.66,12.75,32.13,34.94,32.13,58.93C369.12,221.97,337.65,253.44,298.98,253.44z"/>
</g>
</svg>
