<?xml version="1.0" encoding="utf-8"?>
<!-- Generator: Adobe Illustrator 24.1.2, SVG Export Plug-In . SVG Version: 6.00 Build 0)  -->
<svg version="1.1" id="Warstwa_3" xmlns="http://www.w3.org/2000/svg" xmlns:xlink="http://www.w3.org/1999/xlink" x="0px" y="0px"
	 viewBox="0 0 430 430" style="enable-background:new 0 0 430 430;" xml:space="preserve">
<style type="text/css">
	.st0{fill:#ffffff;}
	.st1{fill:#ffffff;}
	.st2{fill:#ffffff;}
	.st3{fill:none;}
</style>
<g>
	<g>
		<path class="st0" d="M176.52,401.27c-14.91,0-27.04-12.13-27.04-27.03c0-12.66,18.25-43.35,21.91-49.37
			c1.09-1.79,3.03-2.89,5.13-2.89l0,0c2.1,0,4.04,1.09,5.13,2.89c3.66,6.02,21.91,36.72,21.91,49.37
			C203.55,389.15,191.42,401.27,176.52,401.27z M176.52,339.89c-7.36,13.11-15.04,28.82-15.04,34.35c0,8.29,6.75,15.03,15.04,15.03
			s15.03-6.74,15.03-15.03C191.55,368.72,183.88,353,176.52,339.89z"/>
		<g>
			<path class="st0" d="M263.69,363.5c-11.94,0-21.65-9.71-21.65-21.65c0-9.58,12.64-31.15,16.52-37.53
				c1.09-1.79,3.03-2.89,5.13-2.89s4.04,1.09,5.13,2.89c3.88,6.38,16.52,27.95,16.52,37.53C285.34,353.78,275.63,363.5,263.69,363.5
				z M263.69,319.45c-5.23,9.55-9.64,19.14-9.64,22.39c0,5.32,4.33,9.65,9.65,9.65s9.65-4.33,9.65-9.65
				C273.34,338.68,268.93,329.05,263.69,319.45z"/>
			<path class="st0" d="M89.34,363.5c-11.94,0-21.65-9.71-21.65-21.65c0-9.58,12.64-31.15,16.52-37.53
				c1.09-1.79,3.03-2.89,5.13-2.89s4.04,1.09,5.13,2.89c3.88,6.38,16.52,27.95,16.52,37.53C110.99,353.78,101.28,363.5,89.34,363.5z
				 M89.34,319.45c-5.23,9.55-9.65,19.14-9.65,22.39c0,5.32,4.33,9.65,9.65,9.65s9.65-4.33,9.65-9.65
				C98.99,338.68,94.58,329.05,89.34,319.45z"/>
		</g>
	</g>
	<path class="st0" d="M318.98,213.61c-3.28,0-5.96-2.64-6-5.92c-0.04-3.31,2.61-6.03,5.92-6.08c16.78-0.21,32.92-5.49,46.66-15.26
		c6.7-4.76,12.53-10.36,17.44-16.71c-34.63,5.04-69.61-9.51-90.42-38.77c-17.84-25.1-22.23-56.55-12.53-85.03
		c-3.49,1.8-6.85,3.85-10.08,6.15c-16.15,11.49-27.62,28.41-32.3,47.63c-0.78,3.22-4.02,5.19-7.25,4.41
		c-3.22-0.78-5.19-4.03-4.41-7.25c5.36-22.02,18.5-41.4,37-54.57c8.15-5.8,17.09-10.25,26.56-13.21c2.32-0.73,4.85,0.02,6.4,1.89
		c1.55,1.87,1.83,4.49,0.69,6.64c-14.65,27.73-12.47,60.83,5.7,86.38c20.76,29.18,57.66,41.6,91.8,30.91
		c2.32-0.73,4.85,0.02,6.4,1.89c1.56,1.87,1.83,4.49,0.69,6.64c-6.92,13.11-16.59,24.14-28.74,32.78
		c-15.74,11.19-34.23,17.24-53.46,17.48C319.04,213.61,319.01,213.61,318.98,213.61z"/>
	<path class="st1" d="M279.69,139.77c-17.5-36.06-54.32-59.24-94.52-59.24c-36.2,0-70.12,19-89.51,49.85
		c-9.84-1.01-19.82,2.27-27.37,9.19c-7.93,7.26-12.21,17.46-11.88,27.93c-17.58,11.37-28.35,30.98-28.35,52.08
		c0,34.18,27.81,61.99,61.99,61.99h161.2c40.67,0,73.75-33.08,73.75-73.75C324.99,178.19,306.88,151.15,279.69,139.77z
		 M251.24,269.57H90.04c-27.57,0-49.99-22.43-49.99-49.99c0-18.07,9.8-34.8,25.58-43.64c2.17-1.22,3.36-3.64,3-6.11
		c-1.16-7.9,1.74-15.91,7.75-21.41c5.84-5.35,13.46-7.39,20.91-5.62c7.04,1.68,13.2,6.17,16.9,12.33c3.25,5.41,4.2,11.6,2.68,17.45
		c-0.83,3.21,1.09,6.48,4.3,7.32c3.2,0.84,6.48-1.09,7.32-4.3c2.34-8.99,0.91-18.46-4.01-26.65c-3.95-6.58-9.84-11.83-16.75-15.11
		c17.47-25.64,46.52-41.31,77.43-41.31c36.33,0,69.56,21.37,84.66,54.43c7.78,17.02,10.22,36.61,6.9,55.15
		c-0.59,3.26,1.58,6.38,4.84,6.97c0.36,0.06,0.72,0.1,1.07,0.1c2.85,0,5.38-2.04,5.9-4.94c2.81-15.67,1.97-31.99-2.32-47.28
		c16.43,11.37,26.77,30.37,26.77,50.86C312.99,241.87,285.29,269.57,251.24,269.57z"/>
</g>
</svg>
