<?xml version="1.0" encoding="utf-8"?>
<!-- Generator: Adobe Illustrator 24.1.2, SVG Export Plug-In . SVG Version: 6.00 Build 0)  -->
<svg version="1.1" id="Warstwa_3" xmlns="http://www.w3.org/2000/svg" xmlns:xlink="http://www.w3.org/1999/xlink" x="0px" y="0px"
	 viewBox="0 0 430 430" style="enable-background:new 0 0 430 430;" xml:space="preserve">
<style type="text/css">
	.st0{fill:#ffffff;}
	.st1{fill:#ffffff;}
	.st2{fill:#ffffff;}
	.st3{fill:none;}
</style>
<g>
	<g>
		<path class="st0" d="M170.72,405.5c-14.91,0-27.03-12.13-27.03-27.04c0-12.66,18.25-43.35,21.91-49.37
			c1.09-1.79,3.03-2.89,5.13-2.89s4.04,1.09,5.13,2.89c3.66,6.02,21.91,36.72,21.91,49.37C197.76,393.37,185.63,405.5,170.72,405.5z
			 M170.72,344.12c-7.36,13.11-15.03,28.82-15.03,34.35c0,8.29,6.74,15.04,15.03,15.04c8.29,0,15.04-6.74,15.04-15.04
			C185.76,372.94,178.09,357.23,170.72,344.12z"/>
		<g>
			<path class="st0" d="M257.9,367.72c-11.94,0-21.65-9.71-21.65-21.65c0-9.58,12.65-31.15,16.52-37.53
				c1.09-1.79,3.03-2.89,5.13-2.89l0,0c2.1,0,4.04,1.09,5.13,2.89c3.88,6.38,16.52,27.95,16.52,37.53
				C279.55,358.01,269.83,367.72,257.9,367.72z M257.89,323.68c-5.23,9.55-9.65,19.14-9.65,22.39c0,5.32,4.33,9.65,9.65,9.65
				s9.65-4.33,9.65-9.65C267.55,342.91,263.14,333.28,257.89,323.68z"/>
			<path class="st0" d="M83.55,367.72c-11.94,0-21.65-9.71-21.65-21.65c0-9.58,12.64-31.15,16.52-37.53
				c1.09-1.79,3.03-2.89,5.13-2.89s4.04,1.09,5.13,2.89c3.88,6.38,16.52,27.95,16.52,37.53C105.2,358.01,95.49,367.72,83.55,367.72z
				 M83.55,323.67c-5.23,9.55-9.65,19.14-9.65,22.4c0,5.32,4.33,9.65,9.65,9.65s9.65-4.33,9.65-9.65
				C93.2,342.81,88.79,333.22,83.55,323.67z"/>
		</g>
	</g>
	<path class="st0" d="M311.26,234.21c-1.65,0-3.28-0.67-4.47-1.99c-2.21-2.47-2.01-6.26,0.46-8.47
		c14.77-13.25,23.25-32.22,23.25-52.05c0-38.56-31.37-69.93-69.93-69.93c-10.65,0-20.86,2.32-30.35,6.9
		c-2.98,1.44-6.57,0.19-8.01-2.8c-1.44-2.98-0.19-6.57,2.8-8.01c11.14-5.37,23.1-8.1,35.57-8.1c45.18,0,81.93,36.75,81.93,81.93
		c0,23.24-9.93,45.47-27.23,60.99C314.11,233.7,312.68,234.21,311.26,234.21z"/>
	<path class="st0" d="M260.56,70.44c-3.31,0-6-2.69-6-6V30.5c0-3.31,2.69-6,6-6s6,2.69,6,6v33.94
		C266.56,67.75,263.88,70.44,260.56,70.44z"/>
	<path class="st0" d="M179.62,96.75c-1.54,0-3.07-0.59-4.24-1.76l-18.9-18.89c-2.34-2.34-2.34-6.14,0-8.49
		c2.34-2.34,6.14-2.34,8.49,0l18.9,18.89c2.34,2.34,2.34,6.14,0,8.49C182.7,96.16,181.16,96.75,179.62,96.75z"/>
	<path class="st0" d="M360.4,277.52c-1.54,0-3.07-0.59-4.24-1.76l-24-24c-2.34-2.34-2.34-6.14,0-8.49c2.34-2.34,6.14-2.34,8.49,0
		l24,24c2.34,2.34,2.34,6.14,0,8.49C363.47,276.94,361.93,277.52,360.4,277.52z"/>
	<path class="st0" d="M401.75,177.69h-33.94c-3.31,0-6-2.69-6-6s2.69-6,6-6h33.94c3.31,0,6,2.69,6,6S405.06,177.69,401.75,177.69z"
		/>
	<path class="st0" d="M336.4,101.85c-1.54,0-3.07-0.59-4.24-1.76c-2.34-2.34-2.34-6.14,0-8.49l24-24c2.34-2.34,6.14-2.34,8.49,0
		c2.34,2.34,2.34,6.14,0,8.49l-24,24C339.47,101.26,337.93,101.85,336.4,101.85z"/>
	<path class="st1" d="M273.9,144c-17.5-36.06-54.32-59.24-94.52-59.24c-36.2,0-70.12,19-89.52,49.85
		c-9.84-1.02-19.82,2.27-27.37,9.19c-7.93,7.26-12.21,17.46-11.88,27.93c-17.58,11.37-28.35,30.98-28.35,52.08
		c0,34.18,27.81,61.99,61.99,61.99h161.2c40.67,0,73.75-33.08,73.75-73.75C319.2,182.41,301.09,155.38,273.9,144z M245.45,273.79
		H84.24c-27.57,0-49.99-22.43-49.99-49.99c0-18.07,9.8-34.8,25.58-43.64c2.17-1.22,3.36-3.65,3-6.11
		c-1.16-7.9,1.74-15.91,7.75-21.41c5.84-5.35,13.46-7.39,20.91-5.62c7.04,1.68,13.2,6.17,16.9,12.33c3.25,5.41,4.2,11.6,2.68,17.45
		c-0.83,3.21,1.09,6.48,4.3,7.32c3.21,0.83,6.48-1.09,7.32-4.3c2.34-8.99,0.91-18.46-4.01-26.65c-3.95-6.58-9.84-11.83-16.75-15.11
		c17.47-25.64,46.52-41.31,77.43-41.31c36.33,0,69.56,21.37,84.66,54.43c7.78,17.02,10.22,36.61,6.9,55.15
		c-0.59,3.26,1.58,6.38,4.85,6.97c0.36,0.06,0.71,0.1,1.07,0.1c2.85,0,5.38-2.04,5.9-4.94c2.81-15.67,1.97-31.99-2.32-47.28
		c16.43,11.37,26.77,30.37,26.77,50.86C307.2,246.09,279.5,273.79,245.45,273.79z"/>
</g>
</svg>
