<?xml version="1.0" encoding="utf-8"?>
<!-- Generator: Adobe Illustrator 24.1.2, SVG Export Plug-In . SVG Version: 6.00 Build 0)  -->
<svg version="1.1" id="Warstwa_3" xmlns="http://www.w3.org/2000/svg" xmlns:xlink="http://www.w3.org/1999/xlink" x="0px" y="0px"
	 viewBox="0 0 430 430" style="enable-background:new 0 0 430 430;" xml:space="preserve">
<style type="text/css">
	.st0{fill:#ffffff;}
	.st1{fill:#ffffff;}
	.st2{fill:#ffffff;}
	.st3{fill:none;}
</style>
<g>
	<g>
		<path class="st0" d="M215,387.58c-3.31,0-6-2.69-6-6v-74.2c0-3.31,2.69-6,6-6s6,2.69,6,6v74.2
			C221,384.89,218.31,387.58,215,387.58z"/>
		<path class="st0" d="M252.1,350.48h-74.2c-3.31,0-6-2.69-6-6s2.69-6,6-6h74.2c3.31,0,6,2.69,6,6S255.41,350.48,252.1,350.48z"/>
		<path class="st0" d="M241.23,376.71c-1.54,0-3.07-0.59-4.24-1.76l-52.47-52.47c-2.34-2.34-2.34-6.14,0-8.49
			c2.34-2.34,6.14-2.34,8.49,0l52.47,52.47c2.34,2.34,2.34,6.14,0,8.49C244.31,376.13,242.77,376.71,241.23,376.71z"/>
		<path class="st0" d="M188.77,376.71c-1.54,0-3.07-0.59-4.24-1.76c-2.34-2.34-2.34-6.14,0-8.49L236.99,314
			c2.34-2.34,6.14-2.34,8.49,0s2.34,6.14,0,8.49l-52.47,52.47C191.84,376.13,190.3,376.71,188.77,376.71z"/>
	</g>
	<g>
		<path class="st0" d="M306,348.14c-12.32,0-22.33-10.02-22.33-22.33c0-9.93,13.17-32.39,17.21-39.04c1.09-1.79,3.03-2.89,5.13-2.89
			s4.04,1.09,5.13,2.89c4.04,6.65,17.21,29.11,17.21,39.04C328.33,338.13,318.31,348.14,306,348.14z M306,301.88
			c-5.58,10.14-10.33,20.44-10.33,23.93c0,5.7,4.64,10.33,10.33,10.33s10.33-4.64,10.33-10.33
			C316.33,322.32,311.58,312.03,306,301.88z"/>
		<path class="st0" d="M124,348.14c-12.32,0-22.33-10.02-22.33-22.33c0-9.93,13.17-32.39,17.21-39.04c1.09-1.79,3.03-2.89,5.13-2.89
			s4.04,1.09,5.13,2.89c4.04,6.65,17.21,29.11,17.21,39.04C146.34,338.13,136.32,348.14,124,348.14z M124,301.88
			c-5.58,10.14-10.33,20.44-10.33,23.93c0,5.7,4.64,10.33,10.33,10.33s10.33-4.64,10.33-10.33
			C134.34,322.32,129.58,312.03,124,301.88z"/>
	</g>
	<path class="st1" d="M330.41,108.84c-19.49-40.42-60.7-66.42-105.68-66.42c-40.58,0-78.6,21.38-100.23,56.07
		c-11-1.27-22.19,2.35-30.64,10.08c-8.85,8.1-13.59,19.55-13.1,31.24C61,152.42,48.88,174.35,48.88,197.95
		c0,38.01,30.92,68.93,68.93,68.93h181.17c45.29,0,82.14-36.85,82.14-82.14C381.12,151.64,360.84,121.45,330.41,108.84z
		 M298.98,254.87H117.81c-31.39,0-56.93-25.54-56.93-56.93c0-20.58,11.16-39.62,29.13-49.69c2.17-1.22,3.36-3.64,3-6.11
		c-1.34-9.12,2.01-18.36,8.95-24.72c6.75-6.18,15.56-8.54,24.17-6.49c8.11,1.93,15.2,7.11,19.46,14.2
		c3.76,6.25,4.86,13.42,3.1,20.18c-0.83,3.21,1.09,6.48,4.3,7.32c3.21,0.83,6.48-1.09,7.32-4.3c2.58-9.91,1.01-20.35-4.42-29.38
		c-4.52-7.52-11.33-13.47-19.3-17.06c19.72-29.45,52.86-47.47,88.14-47.47c41.12,0,78.73,24.18,95.83,61.61
		c8.8,19.27,11.57,41.43,7.8,62.42c-0.59,3.26,1.58,6.38,4.85,6.97c0.36,0.06,0.71,0.1,1.07,0.1c2.85,0,5.38-2.04,5.9-4.94
		c3.26-18.17,2.1-37.14-3.18-54.77c19.66,12.75,32.13,34.94,32.13,58.93C369.12,223.41,337.65,254.87,298.98,254.87z"/>
</g>
</svg>
