<?xml version="1.0" encoding="utf-8"?>
<!-- Generator: Adobe Illustrator 24.1.2, SVG Export Plug-In . SVG Version: 6.00 Build 0)  -->
<svg version="1.1" id="Warstwa_3" xmlns="http://www.w3.org/2000/svg" xmlns:xlink="http://www.w3.org/1999/xlink" x="0px" y="0px"
	 viewBox="0 0 430 430" style="enable-background:new 0 0 430 430;" xml:space="preserve">
<style type="text/css">
	.st0{fill:#ffffff;}
	.st1{fill:#ffffff;}
	.st2{fill:#ffffff;}
	.st3{fill:none;}
</style>
<g>
	<path class="st1" d="M330.41,112.71c-19.49-40.42-60.7-66.41-105.68-66.41c-40.58,0-78.6,21.38-100.23,56.07
		c-11-1.27-22.19,2.35-30.64,10.09C85,120.56,80.27,132,80.75,143.69C61,156.3,48.88,178.22,48.88,201.83
		c0,38,30.92,68.92,68.92,68.92h54.52c3.31,0,6-2.69,6-6s-2.69-6-6-6H117.8c-31.39,0-56.92-25.53-56.92-56.92
		c0-20.59,11.16-39.63,29.12-49.7c2.17-1.22,3.37-3.65,3-6.11c-1.34-9.12,2-18.36,8.95-24.72c6.75-6.18,15.56-8.55,24.18-6.5
		c0,0,0.01,0,0.01,0c0.03,0.01,0.05,0.01,0.08,0.02c8.07,1.95,15.13,7.11,19.37,14.17c3.76,6.25,4.86,13.42,3.1,20.19
		c-0.83,3.21,1.09,6.48,4.3,7.32c3.21,0.83,6.48-1.09,7.32-4.3c2.58-9.91,1-20.35-4.43-29.39c-4.52-7.52-11.33-13.47-19.3-17.06
		c19.72-29.45,52.86-47.47,88.14-47.47c41.12,0,78.73,24.18,95.83,61.61c8.8,19.26,11.57,41.43,7.8,62.42
		c-0.59,3.26,1.58,6.38,4.84,6.97c0.36,0.06,0.72,0.1,1.07,0.1c2.85,0,5.38-2.04,5.9-4.94c3.26-18.17,2.1-37.14-3.18-54.77
		c19.65,12.76,32.13,34.95,32.13,58.93c0,38.68-31.46,70.14-70.14,70.14h-45.62c-3.31,0-6,2.69-6,6c0,3.31,2.69,6,6,6h45.62
		c45.29,0,82.14-36.85,82.14-82.14C381.12,155.52,360.83,125.33,330.41,112.71z"/>
	<path class="st0" d="M199.32,383.7c-0.43,0-0.87-0.05-1.31-0.14c-2.73-0.61-4.67-3.02-4.69-5.81l-0.61-89.06l-28.94,0.01
		c-2.06,0-3.98-1.06-5.08-2.8c-1.1-1.74-1.23-3.93-0.34-5.79l44.09-92.27c1-2.09,3.1-3.41,5.41-3.41h45.67
		c2.06,0,3.98,1.06,5.08,2.8c1.1,1.75,1.22,3.93,0.33,5.79l-18.63,38.84l25.93-0.04c0,0,0.01,0,0.01,0c2.06,0,3.97,1.06,5.07,2.8
		c1.1,1.74,1.23,3.93,0.34,5.79l-66.93,139.88C203.71,382.41,201.59,383.7,199.32,383.7z M198.66,276.69c3.3,0,5.98,2.66,6,5.96
		l0.47,68.99l51.58-107.8l-25.94,0.04c0,0-0.01,0-0.01,0c-2.06,0-3.98-1.06-5.08-2.8c-1.1-1.75-1.23-3.93-0.33-5.8l18.64-38.86
		h-32.36l-38.35,80.27L198.66,276.69z"/>
</g>
</svg>
