<?xml version="1.0" encoding="utf-8"?>
<!-- Generator: Adobe Illustrator 24.1.2, SVG Export Plug-In . SVG Version: 6.00 Build 0)  -->
<svg version="1.1" id="Warstwa_3" xmlns="http://www.w3.org/2000/svg" xmlns:xlink="http://www.w3.org/1999/xlink" x="0px" y="0px"
	 viewBox="0 0 430 430" style="enable-background:new 0 0 430 430;" xml:space="preserve">
<style type="text/css">
	.st0{fill:#ffffff;}
	.st1{fill:#ffffff;}
	.st2{fill:#ffffff;}
	.st3{fill:none;}
</style>
<g>
	<g>
		<path class="st0" d="M182.68,310.02c-0.16,0-0.33-0.01-0.49-0.02c-0.14-0.01-0.28-0.03-0.42-0.04c-0.08-0.01-0.16-0.02-0.24-0.03
			c-47.48-6.17-83.29-46.98-83.29-94.93c0-52.79,42.94-95.73,95.73-95.73c26.54,0,52.1,11.15,70.15,30.6
			c0.46,0.47,0.84,1.01,1.13,1.59c1.45,2.98,0.22,6.57-2.76,8.02c-2.42,1.18-5.24,0.59-6.99-1.27c-0.04-0.04-0.07-0.08-0.11-0.12
			c-15.79-17.05-38.17-26.83-61.41-26.83c-46.17,0-83.73,37.56-83.73,83.73c0,41.92,31.27,77.59,72.75,83.02
			c0.06,0.01,0.13,0.01,0.19,0.02c3.3,0.27,5.75,3.16,5.48,6.47C188.41,307.64,185.77,310.02,182.68,310.02z"/>
		<path class="st0" d="M193.97,95.27c-3.31,0-6-2.69-6-6V49.48c0-3.31,2.69-6,6-6s6,2.69,6,6v39.78
			C199.97,92.58,197.28,95.27,193.97,95.27z"/>
		<path class="st0" d="M105.06,132.09c-1.54,0-3.07-0.59-4.24-1.76L72.69,102.2c-2.34-2.34-2.34-6.14,0-8.49
			c2.34-2.34,6.14-2.34,8.49,0l28.13,28.13c2.34,2.34,2.34,6.14,0,8.49C108.14,131.51,106.6,132.09,105.06,132.09z"/>
		<path class="st0" d="M68.24,221H28.45c-3.31,0-6-2.69-6-6s2.69-6,6-6h39.78c3.31,0,6,2.69,6,6S71.55,221,68.24,221z"/>
		<path class="st0" d="M76.93,338.04c-1.54,0-3.07-0.59-4.24-1.76c-2.34-2.34-2.34-6.14,0-8.48l28.13-28.13
			c2.34-2.34,6.14-2.34,8.49,0c2.34,2.34,2.34,6.14,0,8.48l-28.13,28.13C80,337.45,78.47,338.04,76.93,338.04z"/>
		<path class="st0" d="M193.97,386.52c-3.31,0-6-2.69-6-6v-39.78c0-3.31,2.69-6,6-6s6,2.69,6,6v39.78
			C199.97,383.83,197.28,386.52,193.97,386.52z"/>
		<path class="st0" d="M282.88,132.09c-1.54,0-3.07-0.59-4.24-1.76c-2.34-2.34-2.34-6.14,0-8.49l28.13-28.13
			c2.34-2.34,6.14-2.34,8.49,0c2.34,2.34,2.34,6.14,0,8.49l-28.13,28.13C285.95,131.51,284.41,132.09,282.88,132.09z"/>
	</g>
	<path class="st1" d="M339.09,371.43c0.34-0.12,0.66-0.28,0.98-0.46c39.89-19.28,67.48-60.16,67.48-107.36
		c0-49.2-29.97-91.53-72.62-109.69c-0.35-0.18-0.71-0.33-1.08-0.45c-14.02-5.81-29.37-9.02-45.46-9.02
		c-31.39,0-59.98,12.21-81.28,32.11c-0.47,0.33-0.89,0.73-1.24,1.18c-22.56,21.69-36.63,52.17-36.63,85.87
		c0,65.7,53.45,119.16,119.16,119.16c9.28,0,18.32-1.07,26.99-3.08c0.22-0.04,0.44-0.09,0.66-0.16
		C324.06,377.61,331.78,374.88,339.09,371.43z M313.33,342.11c-0.63-1.32-2.56-5.32-13.75-15.84c-2.32-2.19-3.49-5.38-3.12-8.57
		l0.71-6.22l15.95-14.51c7.04,5,22.45,15.2,41.31,23.04l-4.49,17L333.07,361c-4.4,2.03-8.96,3.76-13.66,5.19
		C318.03,355.74,315.99,347.66,313.33,342.11z M324.57,162.75l-19.32,12.41c-1.66,1.06-2.69,2.87-2.75,4.84s0.83,3.84,2.41,5.02
		l14.25,10.62c1.18,0.88,2.63,1.29,4.1,1.17l15.77-1.35c1.79,2.59,3.34,5.04,3.83,6.12c0.17,2.8-0.94,7.81-2.18,12l-27.29,1.03
		c-2.18,0.08-4.14,1.34-5.13,3.29l-6.55,12.94l-13.3-9.93c-1.29-0.96-2.91-1.37-4.5-1.12c-1.29,0.2-12.76,2.15-18.36,10.04
		c-2.62,3.7-3.55,8.12-2.68,12.78c0.28,1.5,1.13,2.84,2.36,3.75l13.05,9.52l7.37,15.15l-7.19,6.23l-30.23-16.5l-7.51-42.72
		c7.38-8.67,15.51-23.7,7.09-34.8c-4.35-5.73-9.81-11.45-19.75-7.5l-0.9-0.01c17.37-12.13,38.47-19.26,61.21-19.26
		C301.08,156.46,313.26,158.68,324.57,162.75z M181.23,263.62c0-29.74,12.18-56.68,31.8-76.11l16.13,0.24
		c0.91,0.01,1.8-0.18,2.62-0.56c2.82-1.31,2.93-1.36,6.47,3.3c4.52,5.96-5.38,18.52-8.27,21.54c-1.33,1.38-1.92,3.31-1.58,5.2
		l8.52,48.45c0.32,1.8,1.43,3.35,3.03,4.23l36.42,19.88c0.9,0.49,1.89,0.73,2.87,0.73c1.41,0,2.81-0.5,3.93-1.47L297,277.07
		c2.05-1.78,2.65-4.72,1.47-7.16l-10.04-20.63c-0.43-0.88-1.07-1.64-1.86-2.22l-11.93-8.7c0.13-0.69,0.42-1.18,0.69-1.57
		c1.66-2.35,5.45-3.86,8.12-4.61l16.81,12.55c1.42,1.06,3.24,1.44,4.96,1.03s3.18-1.55,3.98-3.13l8.17-16.16l27.94-1.06
		c2.44-0.09,4.58-1.66,5.42-3.95c0.83-2.3,4.93-14.13,4-21.75c-0.14-1.16-0.47-3.88-7.97-14.07c-1.24-1.68-3.26-2.6-5.34-2.42
		l-16.91,1.45l-5.48-4.08l18.49-11.88c0.08-0.05,0.15-0.12,0.23-0.18c34.32,17.88,57.81,53.8,57.81,95.1
		c0,31.34-13.52,59.57-35.03,79.18c0.33-0.52,0.6-1.09,0.76-1.69l6.12-23.18c0.78-2.97-0.8-6.05-3.67-7.14
		c-26.1-9.91-47.1-26.14-47.31-26.3c-2.3-1.8-5.57-1.67-7.73,0.29l-21.25,19.34c-1.07,0.98-1.76,2.31-1.92,3.75l-0.97,8.45
		c-0.81,6.92,1.74,13.91,6.82,18.68c9.1,8.56,10.89,11.75,11.15,12.3c2.16,4.5,3.96,12.11,5.17,21.72
		c-6.26,1.14-12.71,1.74-19.29,1.74C229.3,370.77,181.23,322.7,181.23,263.62z"/>
</g>
</svg>
