<?xml version="1.0" encoding="utf-8"?>
<!-- Generator: Adobe Illustrator 24.1.2, SVG Export Plug-In . SVG Version: 6.00 Build 0)  -->
<svg version="1.1" id="Warstwa_3" xmlns="http://www.w3.org/2000/svg" xmlns:xlink="http://www.w3.org/1999/xlink" x="0px" y="0px"
	 viewBox="0 0 430 430" style="enable-background:new 0 0 430 430;" xml:space="preserve">
<style type="text/css">
	.st0{fill:#ffffff;}
	.st1{fill:#ffffff;}
	.st2{fill:#ffffff;}
	.st3{fill:none;}
</style>
<g>
	<path class="st0" d="M215,307.01c-50.73,0-92.01-41.27-92.01-92.01s41.27-92.01,92.01-92.01s92.01,41.27,92.01,92.01
		S265.73,307.01,215,307.01z M215,134.99c-44.12,0-80.01,35.89-80.01,80.01s35.89,80.01,80.01,80.01s80.01-35.89,80.01-80.01
		S259.12,134.99,215,134.99z"/>
	<path class="st0" d="M215,99.37c-3.31,0-6-2.69-6-6V54.88c0-3.31,2.69-6,6-6s6,2.69,6,6v38.49C221,96.68,218.31,99.37,215,99.37z"
		/>
	<path class="st0" d="M128.99,134.99c-1.54,0-3.07-0.59-4.24-1.76L78.67,87.15c-2.34-2.34-2.34-6.14,0-8.49
		c2.34-2.34,6.14-2.34,8.49,0l46.08,46.08c2.34,2.34,2.34,6.14,0,8.49C132.06,134.41,130.53,134.99,128.99,134.99z"/>
	<path class="st0" d="M93.37,221H54.88c-3.31,0-6-2.69-6-6s2.69-6,6-6h38.49c3.31,0,6,2.69,6,6S96.68,221,93.37,221z"/>
	<path class="st0" d="M82.92,353.08c-1.54,0-3.07-0.59-4.24-1.76c-2.34-2.34-2.34-6.14,0-8.49l46.08-46.08
		c2.34-2.34,6.14-2.34,8.49,0c2.34,2.34,2.34,6.14,0,8.49l-46.08,46.08C85.99,352.5,84.45,353.08,82.92,353.08z"/>
	<path class="st0" d="M215,381.12c-3.31,0-6-2.69-6-6v-38.49c0-3.31,2.69-6,6-6s6,2.69,6,6v38.49
		C221,378.43,218.31,381.12,215,381.12z"/>
	<path class="st0" d="M347.09,353.09c-1.54,0-3.07-0.59-4.24-1.76l-46.08-46.08c-2.34-2.34-2.34-6.14,0-8.49
		c2.34-2.34,6.14-2.34,8.49,0l46.08,46.08c2.34,2.34,2.34,6.14,0,8.49C350.16,352.51,348.63,353.09,347.09,353.09z"/>
	<path class="st0" d="M375.12,221h-38.49c-3.31,0-6-2.69-6-6s2.69-6,6-6h38.49c3.31,0,6,2.69,6,6S378.43,221,375.12,221z"/>
	<path class="st0" d="M301.01,134.99c-1.54,0-3.07-0.59-4.24-1.76c-2.34-2.34-2.34-6.14,0-8.49l46.08-46.08
		c2.34-2.34,6.14-2.34,8.49,0c2.34,2.34,2.34,6.14,0,8.49l-46.08,46.08C304.08,134.41,302.54,134.99,301.01,134.99z"/>
</g>
</svg>
