<?xml version="1.0" encoding="utf-8"?>
<!-- Generator: Adobe Illustrator 24.1.2, SVG Export Plug-In . SVG Version: 6.00 Build 0)  -->
<svg version="1.1" id="Warstwa_3" xmlns="http://www.w3.org/2000/svg" xmlns:xlink="http://www.w3.org/1999/xlink" x="0px" y="0px"
	 viewBox="0 0 430 430" style="enable-background:new 0 0 430 430;" xml:space="preserve">
<style type="text/css">
	.st0{fill:#ffffff;}
	.st1{fill:#ffffff;}
	.st2{fill:#ffffff;}
	.st3{fill:none;}
</style>
<g>
	<g>
		<path class="st0" d="M289.37,266.95c-0.93,0-1.88-0.22-2.76-0.68c-2.94-1.53-4.08-5.15-2.55-8.09
			c15.74-30.25,10.1-66.79-14.04-90.92c-14.69-14.7-34.23-22.79-55.01-22.79s-40.32,8.09-55.01,22.79
			c-24.14,24.13-29.78,60.67-14.04,90.92c1.53,2.94,0.39,6.56-2.55,8.09s-6.56,0.39-8.09-2.55c-18.17-34.92-11.66-77.1,16.2-104.94
			c16.96-16.96,39.51-26.31,63.5-26.31s46.54,9.34,63.5,26.31c27.86,27.85,34.37,70.02,16.2,104.94
			C293.62,265.77,291.53,266.95,289.37,266.95z"/>
		<path class="st0" d="M371.02,228.27h-37.5c-3.31,0-6-2.69-6-6s2.69-6,6-6h37.5c3.31,0,6,2.69,6,6S374.33,228.27,371.02,228.27z"/>
		<path class="st0" d="M298.8,144.47c-1.54,0-3.07-0.59-4.24-1.76c-2.34-2.34-2.34-6.14,0-8.49l26.52-26.52
			c2.34-2.34,6.14-2.34,8.48,0c2.34,2.34,2.34,6.14,0,8.49l-26.52,26.52C301.88,143.88,300.34,144.47,298.8,144.47z"/>
		<path class="st0" d="M215,109.76c-3.31,0-6-2.69-6-6v-37.5c0-3.31,2.69-6,6-6s6,2.69,6,6v37.5
			C221,107.07,218.31,109.76,215,109.76z"/>
		<path class="st0" d="M131.2,144.47c-1.54,0-3.07-0.59-4.24-1.76l-26.52-26.52c-2.34-2.34-2.34-6.14,0-8.49
			c2.34-2.34,6.14-2.34,8.48,0l26.52,26.52c2.34,2.34,2.34,6.14,0,8.49C134.27,143.88,132.73,144.47,131.2,144.47z"/>
		<path class="st0" d="M96.48,228.27h-37.5c-3.31,0-6-2.69-6-6s2.69-6,6-6h37.5c3.31,0,6,2.69,6,6S99.8,228.27,96.48,228.27z"/>
	</g>
	<path class="st1" d="M401.81,319.95c-17.18,0-26.19-5.21-34.14-9.81c-7.61-4.4-14.17-8.19-28.13-8.19
		c-13.96,0-20.52,3.8-28.13,8.19c-7.95,4.6-16.96,9.81-34.14,9.81c-17.18,0-26.19-5.21-34.14-9.81c-7.61-4.4-14.17-8.19-28.13-8.19
		c-13.96,0-20.53,3.8-28.13,8.19c-7.95,4.6-16.96,9.81-34.14,9.81c-17.18,0-26.19-5.21-34.14-9.81c-7.61-4.4-14.17-8.19-28.13-8.19
		c-13.96,0-20.53,3.8-28.13,8.19c-7.95,4.6-16.96,9.81-34.14,9.81c-3.31,0-6-2.69-6-6s2.69-6,6-6c13.96,0,20.53-3.8,28.13-8.19
		c7.95-4.6,16.96-9.81,34.14-9.81s26.19,5.21,34.14,9.81c7.61,4.4,14.17,8.19,28.13,8.19s20.53-3.8,28.13-8.19
		c7.95-4.6,16.96-9.81,34.14-9.81c17.18,0,26.19,5.21,34.14,9.81c7.61,4.4,14.17,8.19,28.13,8.19s20.52-3.8,28.13-8.19
		c7.95-4.6,16.96-9.81,34.13-9.81c17.18,0,26.19,5.21,34.14,9.81c7.61,4.4,14.17,8.19,28.13,8.19c3.31,0,6,2.69,6,6
		S405.12,319.95,401.81,319.95z"/>
	<path class="st1" d="M401.81,369.75c-17.18,0-26.19-5.21-34.14-9.81c-7.61-4.4-14.17-8.19-28.13-8.19
		c-13.96,0-20.52,3.8-28.13,8.19c-7.95,4.6-16.96,9.81-34.14,9.81c-17.18,0-26.19-5.21-34.14-9.81c-7.61-4.4-14.17-8.19-28.13-8.19
		c-13.96,0-20.53,3.8-28.13,8.19c-7.95,4.6-16.96,9.81-34.14,9.81c-17.18,0-26.19-5.21-34.14-9.81c-7.61-4.4-14.17-8.19-28.13-8.19
		c-13.96,0-20.53,3.8-28.13,8.19c-7.95,4.6-16.96,9.81-34.14,9.81c-3.31,0-6-2.69-6-6s2.69-6,6-6c13.96,0,20.53-3.8,28.13-8.19
		c7.95-4.6,16.96-9.81,34.14-9.81s26.19,5.21,34.14,9.81c7.61,4.4,14.17,8.19,28.13,8.19s20.53-3.8,28.13-8.19
		c7.95-4.6,16.96-9.81,34.14-9.81c17.18,0,26.19,5.21,34.14,9.81c7.61,4.4,14.17,8.19,28.13,8.19s20.52-3.8,28.13-8.19
		c7.95-4.6,16.96-9.81,34.13-9.81c17.18,0,26.19,5.21,34.14,9.81c7.61,4.4,14.17,8.19,28.13,8.19c3.31,0,6,2.69,6,6
		S405.12,369.75,401.81,369.75z"/>
	<path class="st1" d="M401.81,266.95H33.33c-3.31,0-6-2.69-6-6s2.69-6,6-6h368.47c3.31,0,6,2.69,6,6S405.12,266.95,401.81,266.95z"
		/>
</g>
</svg>
